<svg width="8" height="6" viewBox="0 0 8 6" fill="none" xmlns="http://www.w3.org/2000/svg">
<path d="M0.800003 1.40001C0.800003 1.18783 0.884288 0.98435 1.03432 0.834321C1.18435 0.684292 1.38783 0.600006 1.6 0.600006H4C4.21218 0.600006 4.41566 0.684292 4.56569 0.834321C4.71572 0.98435 4.8 1.18783 4.8 1.40001V4.60001C4.8 4.81218 4.71572 5.01566 4.56569 5.16569C4.41566 5.31572 4.21218 5.40001 4 5.40001H1.6C1.38783 5.40001 1.18435 5.31572 1.03432 5.16569C0.884288 5.01566 0.800003 4.81218 0.800003 4.60001V1.40001ZM5.8212 1.84241C5.75477 1.8756 5.69889 1.92664 5.65982 1.9898C5.62076 2.05295 5.60004 2.12574 5.6 2.20001V3.80001C5.60004 3.87427 5.62076 3.94706 5.65982 4.01022C5.69889 4.07337 5.75477 4.12441 5.8212 4.15761L6.6212 4.55761C6.68217 4.58807 6.74991 4.60245 6.818 4.59939C6.88609 4.59632 6.95226 4.57591 7.01025 4.54008C7.06823 4.50426 7.1161 4.45422 7.14931 4.3947C7.18252 4.33518 7.19997 4.26816 7.2 4.20001V1.80001C7.19997 1.73185 7.18252 1.66483 7.14931 1.60531C7.1161 1.5458 7.06823 1.49575 7.01025 1.45993C6.95226 1.4241 6.88609 1.40369 6.818 1.40062C6.74991 1.39756 6.68217 1.41194 6.6212 1.44241L5.8212 1.84241Z" fill="#E0F2FE"/>
</svg>
